<svg width="266" height="41" viewBox="0 0 266 41" fill="none" xmlns="http://www.w3.org/2000/svg">
<path d="M5.27344 14.3867V11.0469C5.27344 10.5547 5.44922 10.1328 5.80078 9.78125C6.15234 9.42969 6.57422 9.25391 7.06641 9.25391C7.55859 9.25391 7.98047 9.42969 8.33203 9.78125C8.68359 10.1328 8.85938 10.5547 8.85938 11.0469V14.3867H10.8105C11.3027 14.3867 11.7246 14.5625 12.0762 14.9141C12.4277 15.2656 12.6035 15.6875 12.6035 16.1797C12.6035 16.6719 12.4277 17.0938 12.0762 17.4453C11.7246 17.7969 11.3027 17.9727 10.8105 17.9727H8.85938V30.207C8.85938 30.6992 8.68359 31.1211 8.33203 31.4727C7.98047 31.8242 7.55859 32 7.06641 32C6.57422 32 6.15234 31.8242 5.80078 31.4727C5.44922 31.1211 5.27344 30.6992 5.27344 30.207V17.9727H3.25195C2.75977 17.9727 2.33789 17.7969 1.98633 17.4453C1.63477 17.0938 1.45898 16.6719 1.45898 16.1797C1.45898 15.6875 1.63477 15.2656 1.98633 14.9141C2.33789 14.5625 2.75977 14.3867 3.25195 14.3867H5.27344ZM15.8555 11.0469C15.8555 10.5547 16.0312 10.1328 16.3828 9.78125C16.7344 9.42969 17.1562 9.25391 17.6484 9.25391C18.1406 9.25391 18.5625 9.42969 18.9141 9.78125C19.2656 10.1328 19.4414 10.5547 19.4414 11.0469V16.1445C20.8594 15.1133 22.5527 14.5391 24.5215 14.4219H24.8027C27.2754 14.5625 29.3086 15.4297 30.9023 17.0234C32.5898 18.7109 33.4453 20.75 33.4688 23.1406V30.2773C33.4688 30.8398 33.293 31.2676 32.9414 31.5605C32.5898 31.8535 32.168 32 31.6758 32C31.1836 32 30.7617 31.8535 30.4102 31.5605C30.0586 31.2676 29.8828 30.8516 29.8828 30.3125V23.1758C29.8828 23.0703 29.8887 22.9648 29.9004 22.8594C29.8301 21.5703 29.3262 20.4629 28.3887 19.5371C27.3691 18.5176 26.1387 18.0078 24.6973 18.0078H24.627C23.1855 18.0078 21.9551 18.5176 20.9355 19.5371C20.0566 20.4043 19.5586 21.4355 19.4414 22.6309V30.3125C19.4414 30.8516 19.2656 31.2676 18.9141 31.5605C18.5625 31.8535 18.1406 32 17.6484 32C17.1562 32 16.7344 31.8535 16.3828 31.5605C16.0312 31.2676 15.8555 30.8398 15.8555 30.2773V11.0469ZM47.8828 18.4473C47.2383 18.1543 46.5293 18.0078 45.7559 18.0078C44.3145 18.0078 43.084 18.5176 42.0645 19.5371C41.0449 20.5449 40.5352 21.7695 40.5352 23.2109C40.5352 24.6523 41.0449 25.8828 42.0645 26.9023C43.084 27.9219 44.3145 28.4316 45.7559 28.4316C47.1855 28.4316 48.4102 27.9277 49.4297 26.9199C49.4414 26.9082 49.4531 26.8965 49.4648 26.8848C49.8047 26.5449 50.2207 26.375 50.7129 26.375C51.2051 26.375 51.627 26.5508 51.9785 26.9023C52.3301 27.2422 52.5059 27.6582 52.5059 28.1504C52.5059 28.6426 52.3301 29.0645 51.9785 29.416C51.9668 29.4277 51.9551 29.4395 51.9434 29.4512C50.2441 31.1504 48.1816 32 45.7559 32C43.3301 32 41.2617 31.1445 39.5508 29.4336C37.8398 27.7227 36.9844 25.6543 36.9844 23.2285C36.9844 20.8027 37.8398 18.7344 39.5508 17.0234C41.2617 15.3125 43.3301 14.457 45.7559 14.457C48.1816 14.457 50.2441 15.3066 51.9434 17.0059L51.9258 17.0234C51.9258 17.0352 51.9316 17.041 51.9434 17.041C52.2832 17.3809 52.4531 17.7969 52.4531 18.2891C52.4531 18.7695 52.2832 19.1797 51.9434 19.5195L46.916 24.5117C46.5645 24.8516 46.1426 25.0215 45.6504 25.0215C45.1465 25.0215 44.7188 24.8516 44.3672 24.5117C44.0273 24.1602 43.8574 23.7324 43.8574 23.2285C43.8574 22.7363 44.0273 22.3145 44.3672 21.9629L47.8828 18.4473ZM82.6172 14.4219C83.1094 14.4219 83.5254 14.5918 83.8652 14.9316C83.9824 15.0488 84.0762 15.1719 84.1465 15.3008H84.1641L89.6484 26.2871L95.1328 15.3008L95.1504 15.3184C95.2324 15.1777 95.332 15.0488 95.4492 14.9316C95.7891 14.5918 96.1992 14.4219 96.6797 14.4219C97.1719 14.4219 97.5879 14.5977 97.9277 14.9492C98.2676 15.2891 98.4375 15.6992 98.4375 16.1797C98.4375 16.5664 98.3262 16.9062 98.1035 17.1992L91.3008 30.8574C91.2188 31.0918 91.084 31.2969 90.8965 31.4727C90.5566 31.8242 90.1406 32 89.6484 32C89.168 32 88.7578 31.8242 88.418 31.4727C88.2305 31.2969 88.0957 31.0977 88.0137 30.875L82.6172 20.0645L77.2383 30.8574C77.1562 31.0918 77.0215 31.2969 76.834 31.4727C76.4941 31.8242 76.0781 32 75.5859 32C75.1055 32 74.6953 31.8242 74.3555 31.4727C74.168 31.2969 74.0332 31.0977 73.9512 30.875L67.1133 17.1816C66.9023 16.8887 66.7969 16.5547 66.7969 16.1797C66.7969 15.6992 66.9668 15.2891 67.3066 14.9492C67.6582 14.5977 68.0742 14.4219 68.5547 14.4219C69.0469 14.4219 69.4629 14.5918 69.8027 14.9316C69.9199 15.0488 70.0137 15.1719 70.084 15.3008H70.1016L75.5859 26.2871L81.0703 15.3008L81.0879 15.3184C81.1699 15.1777 81.2695 15.0488 81.3867 14.9316C81.7266 14.5918 82.1367 14.4219 82.6172 14.4219ZM112.131 19.5371C111.111 18.5176 109.881 18.0078 108.439 18.0078C106.998 18.0078 105.768 18.5176 104.748 19.5371C103.74 20.5449 103.236 21.7695 103.236 23.2109C103.236 24.6523 103.74 25.8828 104.748 26.9023C105.768 27.9219 106.998 28.4316 108.439 28.4316C109.881 28.4316 111.111 27.9219 112.131 26.9023C112.998 26.0352 113.496 25.0156 113.625 23.8438V23.1758C113.625 23.0703 113.631 22.9648 113.643 22.8594C113.572 21.5703 113.068 20.4629 112.131 19.5371ZM117.211 30.2773C117.211 30.957 117.035 31.4141 116.684 31.6484C116.332 31.8828 115.91 32 115.418 32C114.926 32 114.504 31.8828 114.152 31.6484C113.801 31.4141 113.625 30.9688 113.625 30.3125C112.125 31.4375 110.396 32 108.439 32C106.014 32 103.945 31.1445 102.234 29.4336C100.523 27.7227 99.668 25.6543 99.668 23.2285C99.668 20.8027 100.523 18.7344 102.234 17.0234C103.945 15.3125 106.014 14.457 108.439 14.457C110.865 14.457 112.934 15.3125 114.645 17.0234C116.332 18.7109 117.188 20.75 117.211 23.1406V30.2773ZM129.586 14.4219C130.078 14.4219 130.5 14.5977 130.852 14.9492C131.203 15.3008 131.379 15.7227 131.379 16.2148C131.379 16.707 131.203 17.1289 130.852 17.4805C130.5 17.832 130.078 18.0078 129.586 18.0078H129.568C128.127 18.0078 126.896 18.5176 125.877 19.5371C124.939 20.4629 124.436 21.5703 124.365 22.8594C124.377 22.9648 124.383 23.0703 124.383 23.1758V29.9609C124.383 30.6172 124.207 31.1211 123.855 31.4727C123.504 31.8242 123.082 32 122.59 32C122.098 32 121.676 31.8242 121.324 31.4727C120.973 31.1211 120.797 30.6055 120.797 29.9258V23.1406C120.82 20.75 121.676 18.7109 123.363 17.0234C124.98 15.4062 127.055 14.5391 129.586 14.4219ZM157.816 9.25391C158.309 9.25391 158.73 9.42969 159.082 9.78125C159.434 10.1328 159.609 10.5547 159.609 11.0469V30.207C159.609 30.6992 159.434 31.1211 159.082 31.4727C158.73 31.8242 158.309 32 157.816 32C157.324 32 156.902 31.8242 156.551 31.4727C156.199 31.1211 156.023 30.6992 156.023 30.207V11.0469C156.023 10.5547 156.199 10.1328 156.551 9.78125C156.902 9.42969 157.324 9.25391 157.816 9.25391ZM173.988 18.4473C173.344 18.1543 172.635 18.0078 171.861 18.0078C170.42 18.0078 169.189 18.5176 168.17 19.5371C167.15 20.5449 166.641 21.7695 166.641 23.2109C166.641 24.6523 167.15 25.8828 168.17 26.9023C169.189 27.9219 170.42 28.4316 171.861 28.4316C173.291 28.4316 174.516 27.9277 175.535 26.9199C175.547 26.9082 175.559 26.8965 175.57 26.8848C175.91 26.5449 176.326 26.375 176.818 26.375C177.311 26.375 177.732 26.5508 178.084 26.9023C178.436 27.2422 178.611 27.6582 178.611 28.1504C178.611 28.6426 178.436 29.0645 178.084 29.416C178.072 29.4277 178.061 29.4395 178.049 29.4512C176.35 31.1504 174.287 32 171.861 32C169.436 32 167.367 31.1445 165.656 29.4336C163.945 27.7227 163.09 25.6543 163.09 23.2285C163.09 20.8027 163.945 18.7344 165.656 17.0234C167.367 15.3125 169.436 14.457 171.861 14.457C174.287 14.457 176.35 15.3066 178.049 17.0059L178.031 17.0234C178.031 17.0352 178.037 17.041 178.049 17.041C178.389 17.3809 178.559 17.7969 178.559 18.2891C178.559 18.7695 178.389 19.1797 178.049 19.5195L173.021 24.5117C172.67 24.8516 172.248 25.0215 171.756 25.0215C171.252 25.0215 170.824 24.8516 170.473 24.5117C170.133 24.1602 169.963 23.7324 169.963 23.2285C169.963 22.7363 170.133 22.3145 170.473 21.9629L173.988 18.4473ZM191.18 14.4219C191.672 14.4219 192.094 14.5977 192.445 14.9492C192.797 15.3008 192.973 15.7227 192.973 16.2148C192.973 16.707 192.797 17.1289 192.445 17.4805C192.094 17.832 191.672 18.0078 191.18 18.0078H191.162C189.721 18.0078 188.49 18.5176 187.471 19.5371C186.533 20.4629 186.029 21.5703 185.959 22.8594C185.971 22.9648 185.977 23.0703 185.977 23.1758V29.9609C185.977 30.6172 185.801 31.1211 185.449 31.4727C185.098 31.8242 184.676 32 184.184 32C183.691 32 183.27 31.8242 182.918 31.4727C182.566 31.1211 182.391 30.6055 182.391 29.9258V23.1406C182.414 20.75 183.27 18.7109 184.957 17.0234C186.574 15.4062 188.648 14.5391 191.18 14.4219ZM215.771 14.457C218.197 14.457 220.266 15.3125 221.977 17.0234C223.688 18.7344 224.543 20.8027 224.543 23.2285C224.543 25.6543 223.688 27.7227 221.977 29.4336C220.266 31.1445 218.197 32 215.771 32C213.346 32 211.277 31.1445 209.566 29.4336C207.855 27.7227 207 25.6543 207 23.2285C207 20.8027 207.855 18.7344 209.566 17.0234C211.277 15.3125 213.346 14.457 215.771 14.457ZM215.771 18.0078C214.33 18.0078 213.1 18.5176 212.08 19.5371C211.061 20.5449 210.551 21.7695 210.551 23.2109C210.551 24.6523 211.061 25.8828 212.08 26.9023C213.1 27.9219 214.33 28.4316 215.771 28.4316C217.213 28.4316 218.438 27.9219 219.445 26.9023C220.465 25.8828 220.975 24.6523 220.975 23.2109C220.975 21.7695 220.465 20.5449 219.445 19.5371C218.438 18.5176 217.213 18.0078 215.771 18.0078ZM236.918 14.4219C237.41 14.4219 237.832 14.5977 238.184 14.9492C238.535 15.3008 238.711 15.7227 238.711 16.2148C238.711 16.707 238.535 17.1289 238.184 17.4805C237.832 17.832 237.41 18.0078 236.918 18.0078H236.9C235.459 18.0078 234.229 18.5176 233.209 19.5371C232.271 20.4629 231.768 21.5703 231.697 22.8594C231.709 22.9648 231.715 23.0703 231.715 23.1758V29.9609C231.715 30.6172 231.539 31.1211 231.188 31.4727C230.836 31.8242 230.414 32 229.922 32C229.43 32 229.008 31.8242 228.656 31.4727C228.305 31.1211 228.129 30.6055 228.129 29.9258V23.1406C228.152 20.75 229.008 18.7109 230.695 17.0234C232.312 15.4062 234.387 14.5391 236.918 14.4219ZM248.186 18.0078C246.744 18.0078 245.514 18.5176 244.494 19.5371C243.475 20.5449 242.965 21.7695 242.965 23.2109C242.965 24.6523 243.475 25.8828 244.494 26.9023C245.514 27.9219 246.744 28.4316 248.186 28.4316C249.627 28.4316 250.852 27.9219 251.859 26.9023C252.879 25.8828 253.389 24.6523 253.389 23.2109C253.389 21.7695 252.879 20.5449 251.859 19.5371C250.852 18.5176 249.627 18.0078 248.186 18.0078ZM253.389 30.3125C251.889 31.4375 250.154 32 248.186 32C245.76 32 243.691 31.1445 241.98 29.4336C240.27 27.7227 239.414 25.6543 239.414 23.2285C239.414 20.8027 240.27 18.7344 241.98 17.0234C243.691 15.3125 245.76 14.457 248.186 14.457C250.611 14.457 252.68 15.3125 254.391 17.0234C256.102 18.7344 256.957 20.7969 256.957 23.2109H256.975V30.207C256.975 30.3008 256.969 30.3945 256.957 30.4883C256.898 32.8203 256.043 34.8125 254.391 36.4648C252.68 38.1758 250.611 39.0312 248.186 39.0312H248.115C247.623 39.0312 247.201 38.8555 246.85 38.5039C246.498 38.1523 246.322 37.7305 246.322 37.2383C246.322 36.7461 246.498 36.3242 246.85 35.9727C247.201 35.6211 247.623 35.4453 248.115 35.4453C248.197 35.4453 248.279 35.4512 248.361 35.4629C249.721 35.416 250.893 34.9062 251.877 33.9336C252.873 32.9258 253.377 31.7188 253.389 30.3125ZM262.336 28.4141C262.828 28.4141 263.25 28.5898 263.602 28.9414C263.953 29.293 264.129 29.7148 264.129 30.207C264.129 30.6992 263.953 31.1211 263.602 31.4727C263.25 31.8242 262.828 32 262.336 32C261.844 32 261.422 31.8242 261.07 31.4727C260.719 31.1211 260.543 30.6992 260.543 30.207C260.543 29.7148 260.719 29.293 261.07 28.9414C261.422 28.5898 261.844 28.4141 262.336 28.4141Z" fill="#FA700A"/>
<path d="M138.463 23.5977C138.533 24.8867 139.037 25.9941 139.975 26.9199C140.994 27.9395 142.225 28.4492 143.666 28.4492C145.107 28.4492 146.332 27.9453 147.34 26.9375C148.359 25.918 148.869 24.6875 148.869 23.2461C148.869 21.8047 148.359 20.5742 147.34 19.5547C146.332 18.5352 145.107 18.0254 143.666 18.0254C142.225 18.0254 140.994 18.5352 139.975 19.5547C139.107 20.4219 138.609 21.4414 138.48 22.6133V23.2812C138.48 23.3867 138.475 23.4922 138.463 23.5977ZM134.895 10.9766C134.895 10.4844 135.07 10.0625 135.422 9.71094C135.773 9.35938 136.195 9.18359 136.688 9.18359C137.18 9.18359 137.602 9.35938 137.953 9.71094C138.305 10.0625 138.48 10.4844 138.48 10.9766V16.1445C139.98 15.0195 141.709 14.457 143.666 14.457C146.092 14.457 148.16 15.3125 149.871 17.0234C151.582 18.7344 152.438 20.8027 152.438 23.2285C152.438 25.6543 151.582 27.7227 149.871 29.4336C148.16 31.1445 146.092 32 143.666 32C141.24 32 139.172 31.1445 137.461 29.4336C135.773 27.7461 134.918 25.707 134.895 23.3164V10.9766Z" fill="#F9C000"/>
</svg>
